<?xml version="1.0" encoding="UTF-8" standalone="no"?><svg xmlns="http://www.w3.org/2000/svg" xmlns:xlink="http://www.w3.org/1999/xlink" contentScriptType="application/ecmascript" contentStyleType="text/css" height="278px" preserveAspectRatio="none" style="width:287px;height:278px;" version="1.1" viewBox="0 0 287 278" width="287px" zoomAndPan="magnify"><defs><filter height="300%" id="f6d5itc" width="300%" x="-1" y="-1"><feGaussianBlur result="blurOut" stdDeviation="2.0"/><feColorMatrix in="blurOut" result="blurOut2" type="matrix" values="0 0 0 0 0 0 0 0 0 0 0 0 0 0 0 0 0 0 .4 0"/><feOffset dx="4.0" dy="4.0" in="blurOut2" result="blurOut3"/><feBlend in="SourceGraphic" in2="blurOut3" mode="normal"/></filter></defs><g><rect fill="#FFC0CB" filter="url(#f6d5itc)" height="35.0938" style="stroke: #A80036; stroke-width: 1.5;" width="266" x="12.5" y="8"/><text fill="#000000" font-family="sans-serif" font-size="12" lengthAdjust="spacingAndGlyphs" textLength="252" x="19.5" y="22.457">_X2TzMDuFEeer__XDGGfa7g : SpecHierarchy</text><line style="stroke: #A80036; stroke-width: 1.5;" x1="13.5" x2="277.5" y1="27.0938" y2="27.0938"/><rect fill="#FEFECE" filter="url(#f6d5itc)" height="35.0938" style="stroke: #A80036; stroke-width: 1.5;" width="120" x="85.5" y="121"/><text fill="#000000" font-family="sans-serif" font-size="12" lengthAdjust="spacingAndGlyphs" textLength="106" x="92.5" y="135.457">LoginAction : Class</text><line style="stroke: #A80036; stroke-width: 1.5;" x1="86.5" x2="204.5" y1="140.0938" y2="140.0938"/><rect fill="#FEFECE" filter="url(#f6d5itc)" height="35.0938" style="stroke: #A80036; stroke-width: 1.5;" width="127" x="6" y="234"/><text fill="#000000" font-family="sans-serif" font-size="12" lengthAdjust="spacingAndGlyphs" textLength="113" x="13" y="248.457">LoginAction : Lifeline</text><line style="stroke: #A80036; stroke-width: 1.5;" x1="7" x2="132" y1="253.0938" y2="253.0938"/><rect fill="#FEFECE" filter="url(#f6d5itc)" height="35.0938" style="stroke: #A80036; stroke-width: 1.5;" width="107" x="168" y="234"/><text fill="#000000" font-family="sans-serif" font-size="12" lengthAdjust="spacingAndGlyphs" textLength="93" x="175" y="248.457">Login : UseCase</text><line style="stroke: #A80036; stroke-width: 1.5;" x1="169" x2="274" y1="253.0938" y2="253.0938"/><path d="M145.5,43.359 C145.5,64.343 145.5,99.958 145.5,120.847 " fill="none" style="stroke: #A80036; stroke-width: 1.0;"/><text fill="#000000" font-family="sans-serif" font-size="13" lengthAdjust="spacingAndGlyphs" textLength="58" x="146.5" y="87.4951">RelatedTo</text><path d="M133.957,156.359 C119.59,177.3428 95.2044,212.9581 80.9024,233.8465 " fill="none" style="stroke: #A80036; stroke-width: 1.0;"/><text fill="#000000" font-family="sans-serif" font-size="13" lengthAdjust="spacingAndGlyphs" textLength="58" x="113.5" y="200.4951">RelatedTo</text><path d="M158.461,156.054 C165.204,164.83 173.481,175.866 180.5,186 C191.53,201.9259 203.314,220.6653 211.405,233.8291 " fill="none" style="stroke: #A80036; stroke-width: 1.0;"/><text fill="#000000" font-family="sans-serif" font-size="13" lengthAdjust="spacingAndGlyphs" textLength="58" x="192.5" y="200.4951">RelatedTo</text></g></svg>