<?xml version="1.0" encoding="UTF-8" standalone="no"?><svg xmlns="http://www.w3.org/2000/svg" xmlns:xlink="http://www.w3.org/1999/xlink" contentScriptType="application/ecmascript" contentStyleType="text/css" height="504px" preserveAspectRatio="none" style="width:1725px;height:504px;" version="1.1" viewBox="0 0 1725 504" width="1725px" zoomAndPan="magnify"><defs><filter height="300%" id="fmx3xdu" width="300%" x="-1" y="-1"><feGaussianBlur result="blurOut" stdDeviation="2.0"/><feColorMatrix in="blurOut" result="blurOut2" type="matrix" values="0 0 0 0 0 0 0 0 0 0 0 0 0 0 0 0 0 0 .4 0"/><feOffset dx="4.0" dy="4.0" in="blurOut2" result="blurOut3"/><feBlend in="SourceGraphic" in2="blurOut3" mode="normal"/></filter></defs><g><rect fill="#FFC0CB" filter="url(#fmx3xdu)" height="35.0938" style="stroke: #A80036; stroke-width: 1.5;" width="284" x="702" y="8"/><text fill="#000000" font-family="sans-serif" font-size="12" lengthAdjust="spacingAndGlyphs" textLength="270" x="709" y="22.457">_2wXEMD4wEeeZbuCWOdhxUQ : SpecHierarchy</text><line style="stroke: #A80036; stroke-width: 1.5;" x1="703" x2="985" y1="27.0938" y2="27.0938"/><rect fill="#FEFECE" filter="url(#fmx3xdu)" height="35.0938" style="stroke: #A80036; stroke-width: 1.5;" width="153" x="767.5" y="121"/><text fill="#000000" font-family="sans-serif" font-size="12" lengthAdjust="spacingAndGlyphs" textLength="139" x="774.5" y="135.457">CreateUserAction : Class</text><line style="stroke: #A80036; stroke-width: 1.5;" x1="768.5" x2="919.5" y1="140.0938" y2="140.0938"/><rect fill="#FEFECE" filter="url(#fmx3xdu)" height="35.0938" style="stroke: #A80036; stroke-width: 1.5;" width="264" x="6" y="234"/><text fill="#000000" font-family="sans-serif" font-size="12" lengthAdjust="spacingAndGlyphs" textLength="250" x="13" y="248.457">_SoI2gD04Eeeoi7m4eFdz4w : SpecHierarchy</text><line style="stroke: #A80036; stroke-width: 1.5;" x1="7" x2="269" y1="253.0938" y2="253.0938"/><rect fill="#FEFECE" filter="url(#fmx3xdu)" height="35.0938" style="stroke: #A80036; stroke-width: 1.5;" width="152" x="951" y="347"/><text fill="#000000" font-family="sans-serif" font-size="12" lengthAdjust="spacingAndGlyphs" textLength="138" x="958" y="361.457">DeleteUserAction : Class</text><line style="stroke: #A80036; stroke-width: 1.5;" x1="952" x2="1102" y1="366.0938" y2="366.0938"/><rect fill="#FEFECE" filter="url(#fmx3xdu)" height="35.0938" style="stroke: #A80036; stroke-width: 1.5;" width="261" x="1455.5" y="460"/><text fill="#000000" font-family="sans-serif" font-size="12" lengthAdjust="spacingAndGlyphs" textLength="247" x="1462.5" y="474.457">_-1Zr0D03Eeeoi7m4eFdz4w : SpecHierarchy</text><line style="stroke: #A80036; stroke-width: 1.5;" x1="1456.5" x2="1715.5" y1="479.0938" y2="479.0938"/><rect fill="#FEFECE" filter="url(#fmx3xdu)" height="35.0938" style="stroke: #A80036; stroke-width: 1.5;" width="155" x="305.5" y="234"/><text fill="#000000" font-family="sans-serif" font-size="12" lengthAdjust="spacingAndGlyphs" textLength="141" x="312.5" y="248.457">Add Customer : UseCase</text><line style="stroke: #A80036; stroke-width: 1.5;" x1="306.5" x2="459.5" y1="253.0938" y2="253.0938"/><rect fill="#FEFECE" filter="url(#fmx3xdu)" height="35.0938" style="stroke: #A80036; stroke-width: 1.5;" width="155" x="495.5" y="234"/><text fill="#000000" font-family="sans-serif" font-size="12" lengthAdjust="spacingAndGlyphs" textLength="141" x="502.5" y="248.457">Add Employee : UseCase</text><line style="stroke: #A80036; stroke-width: 1.5;" x1="496.5" x2="649.5" y1="253.0938" y2="253.0938"/><rect fill="#FEFECE" filter="url(#fmx3xdu)" height="35.0938" style="stroke: #A80036; stroke-width: 1.5;" width="135" x="685.5" y="234"/><text fill="#000000" font-family="sans-serif" font-size="12" lengthAdjust="spacingAndGlyphs" textLength="121" x="692.5" y="248.457">Add Admin : UseCase</text><line style="stroke: #A80036; stroke-width: 1.5;" x1="686.5" x2="819.5" y1="253.0938" y2="253.0938"/><rect fill="#FEFECE" filter="url(#fmx3xdu)" height="35.0938" style="stroke: #A80036; stroke-width: 1.5;" width="160" x="856" y="234"/><text fill="#000000" font-family="sans-serif" font-size="12" lengthAdjust="spacingAndGlyphs" textLength="146" x="863" y="248.457">CreateUserAction : Lifeline</text><line style="stroke: #A80036; stroke-width: 1.5;" x1="857" x2="1015" y1="253.0938" y2="253.0938"/><rect fill="#FEFECE" filter="url(#fmx3xdu)" height="35.0938" style="stroke: #A80036; stroke-width: 1.5;" width="183" x="1051.5" y="234"/><text fill="#000000" font-family="sans-serif" font-size="12" lengthAdjust="spacingAndGlyphs" textLength="169" x="1058.5" y="248.457">Data validation : DecisionNode</text><line style="stroke: #A80036; stroke-width: 1.5;" x1="1052.5" x2="1233.5" y1="253.0938" y2="253.0938"/><rect fill="#FEFECE" filter="url(#fmx3xdu)" height="35.0938" style="stroke: #A80036; stroke-width: 1.5;" width="263" x="1269.5" y="234"/><text fill="#000000" font-family="sans-serif" font-size="12" lengthAdjust="spacingAndGlyphs" textLength="249" x="1276.5" y="248.457">_zf1hwD03Eeeoi7m4eFdz4w : SpecHierarchy</text><line style="stroke: #A80036; stroke-width: 1.5;" x1="1270.5" x2="1531.5" y1="253.0938" y2="253.0938"/><rect fill="#FEFECE" filter="url(#fmx3xdu)" height="35.0938" style="stroke: #A80036; stroke-width: 1.5;" width="159" x="416.5" y="460"/><text fill="#000000" font-family="sans-serif" font-size="12" lengthAdjust="spacingAndGlyphs" textLength="145" x="423.5" y="474.457">DeleteUserAction : Lifeline</text><line style="stroke: #A80036; stroke-width: 1.5;" x1="417.5" x2="574.5" y1="479.0938" y2="479.0938"/><rect fill="#FEFECE" filter="url(#fmx3xdu)" height="35.0938" style="stroke: #A80036; stroke-width: 1.5;" width="184" x="611" y="460"/><text fill="#000000" font-family="sans-serif" font-size="12" lengthAdjust="spacingAndGlyphs" textLength="170" x="618" y="474.457">User is deleted : OpaqueAction</text><line style="stroke: #A80036; stroke-width: 1.5;" x1="612" x2="794" y1="479.0938" y2="479.0938"/><rect fill="#FEFECE" filter="url(#fmx3xdu)" height="35.0938" style="stroke: #A80036; stroke-width: 1.5;" width="180" x="830" y="460"/><text fill="#000000" font-family="sans-serif" font-size="12" lengthAdjust="spacingAndGlyphs" textLength="166" x="837" y="474.457">Remove Customer : UseCase</text><line style="stroke: #A80036; stroke-width: 1.5;" x1="831" x2="1009" y1="479.0938" y2="479.0938"/><rect fill="#FEFECE" filter="url(#fmx3xdu)" height="35.0938" style="stroke: #A80036; stroke-width: 1.5;" width="180" x="1045" y="460"/><text fill="#000000" font-family="sans-serif" font-size="12" lengthAdjust="spacingAndGlyphs" textLength="166" x="1052" y="474.457">Remove Employee : UseCase</text><line style="stroke: #A80036; stroke-width: 1.5;" x1="1046" x2="1224" y1="479.0938" y2="479.0938"/><rect fill="#FEFECE" filter="url(#fmx3xdu)" height="35.0938" style="stroke: #A80036; stroke-width: 1.5;" width="160" x="1260" y="460"/><text fill="#000000" font-family="sans-serif" font-size="12" lengthAdjust="spacingAndGlyphs" textLength="146" x="1267" y="474.457">Remove Admin : UseCase</text><line style="stroke: #A80036; stroke-width: 1.5;" x1="1261" x2="1419" y1="479.0938" y2="479.0938"/><path d="M844,43.359 C844,64.343 844,99.958 844,120.847 " fill="none" style="stroke: #A80036; stroke-width: 1.0;"/><text fill="#000000" font-family="sans-serif" font-size="13" lengthAdjust="spacingAndGlyphs" textLength="58" x="845" y="87.4951">RelatedTo</text><path d="M767.275,148.152 C694.27,156.682 581.422,170.64 484,186 C393.16,200.322 289.545,220.097 219.571,233.963 " fill="none" style="stroke: #A80036; stroke-width: 1.0;"/><text fill="#000000" font-family="sans-serif" font-size="13" lengthAdjust="spacingAndGlyphs" textLength="58" x="485" y="200.4951">RelatedTo</text><path d="M270.132,268.998 C458.891,292.566 799.613,335.109 950.982,354.008 " fill="none" style="stroke: #A80036; stroke-width: 1.0;"/><text fill="#000000" font-family="sans-serif" font-size="13" lengthAdjust="spacingAndGlyphs" textLength="58" x="637" y="313.4951">RelatedTo</text><path d="M1103.16,379.737 C1151.31,388.808 1214.84,400.8995 1271,412 C1351.36,427.8847 1443.1,446.7529 1506.77,459.9643 " fill="none" style="stroke: #A80036; stroke-width: 1.0;"/><text fill="#000000" font-family="sans-serif" font-size="13" lengthAdjust="spacingAndGlyphs" textLength="58" x="1358" y="426.4951">RelatedTo</text><path d="M1589.44,459.794 C1597.4,415.8786 1612,296.297 1550,234 C1506.08,189.873 1094.4,156.694 920.717,144.544 " fill="none" style="stroke: #A80036; stroke-width: 1.0;"/><text fill="#000000" font-family="sans-serif" font-size="13" lengthAdjust="spacingAndGlyphs" textLength="58" x="1591" y="313.4951">RelatedTo</text><path d="M767.45,153.747 C723.058,162.349 666.183,173.952 616,186 C554.985,200.649 485.772,220.185 438.744,233.905 " fill="none" style="stroke: #A80036; stroke-width: 1.0;"/><text fill="#000000" font-family="sans-serif" font-size="13" lengthAdjust="spacingAndGlyphs" textLength="58" x="617" y="200.4951">RelatedTo</text><path d="M801.301,156.046 C778.84,164.821 750.875,175.857 726,186 C686.895,201.945 642.441,220.763 611.567,233.945 " fill="none" style="stroke: #A80036; stroke-width: 1.0;"/><text fill="#000000" font-family="sans-serif" font-size="13" lengthAdjust="spacingAndGlyphs" textLength="58" x="727" y="200.4951">RelatedTo</text><path d="M830.179,156.359 C812.976,177.343 783.778,212.958 766.653,233.847 " fill="none" style="stroke: #A80036; stroke-width: 1.0;"/><text fill="#000000" font-family="sans-serif" font-size="13" lengthAdjust="spacingAndGlyphs" textLength="58" x="805" y="200.4951">RelatedTo</text><path d="M857.973,156.359 C875.365,177.343 904.884,212.958 922.197,233.847 " fill="none" style="stroke: #A80036; stroke-width: 1.0;"/><text fill="#000000" font-family="sans-serif" font-size="13" lengthAdjust="spacingAndGlyphs" textLength="58" x="897" y="200.4951">RelatedTo</text><path d="M888.763,156.118 C945.294,177.104 1041.98,212.996 1098.42,233.95 " fill="none" style="stroke: #A80036; stroke-width: 1.0;"/><text fill="#000000" font-family="sans-serif" font-size="13" lengthAdjust="spacingAndGlyphs" textLength="58" x="1013" y="200.4951">RelatedTo</text><path d="M920.54,154.505 C966.73,163.58 1026.76,175.405 1080,186 C1161.4,202.196 1254.36,220.898 1319.22,233.979 " fill="none" style="stroke: #A80036; stroke-width: 1.0;"/><text fill="#000000" font-family="sans-serif" font-size="13" lengthAdjust="spacingAndGlyphs" textLength="58" x="1170" y="200.4951">RelatedTo</text><path d="M1345.01,269.118 C1274.3,290.104 1153.36,325.996 1082.76,346.95 " fill="none" style="stroke: #A80036; stroke-width: 1.0;"/><text fill="#000000" font-family="sans-serif" font-size="13" lengthAdjust="spacingAndGlyphs" textLength="58" x="1238" y="313.4951">RelatedTo</text><path d="M950.835,378.904 C901.46,387.795 835.805,399.9969 778,412 C704.977,427.163 621.782,446.4382 564.787,459.9526 " fill="none" style="stroke: #A80036; stroke-width: 1.0;"/><text fill="#000000" font-family="sans-serif" font-size="13" lengthAdjust="spacingAndGlyphs" textLength="58" x="779" y="426.4951">RelatedTo</text><path d="M978.494,382.118 C917.237,403.1041 812.471,438.9961 751.308,459.9501 " fill="none" style="stroke: #A80036; stroke-width: 1.0;"/><text fill="#000000" font-family="sans-serif" font-size="13" lengthAdjust="spacingAndGlyphs" textLength="58" x="886" y="426.4951">RelatedTo</text><path d="M1010.75,382.359 C990.521,403.3428 956.189,438.9581 936.053,459.8465 " fill="none" style="stroke: #A80036; stroke-width: 1.0;"/><text fill="#000000" font-family="sans-serif" font-size="13" lengthAdjust="spacingAndGlyphs" textLength="58" x="981" y="426.4951">RelatedTo</text><path d="M1043.4,382.359 C1063.82,403.3428 1098.47,438.9581 1118.8,459.8465 " fill="none" style="stroke: #A80036; stroke-width: 1.0;"/><text fill="#000000" font-family="sans-serif" font-size="13" lengthAdjust="spacingAndGlyphs" textLength="58" x="1089" y="426.4951">RelatedTo</text><path d="M1073.86,382.118 C1133.04,403.1041 1234.25,438.9961 1293.33,459.9501 " fill="none" style="stroke: #A80036; stroke-width: 1.0;"/><text fill="#000000" font-family="sans-serif" font-size="13" lengthAdjust="spacingAndGlyphs" textLength="58" x="1204" y="426.4951">RelatedTo</text></g></svg>