<?xml version="1.0" encoding="UTF-8" standalone="no"?><svg xmlns="http://www.w3.org/2000/svg" xmlns:xlink="http://www.w3.org/1999/xlink" contentScriptType="application/ecmascript" contentStyleType="text/css" height="730px" preserveAspectRatio="none" style="width:2547px;height:730px;" version="1.1" viewBox="0 0 2547 730" width="2547px" zoomAndPan="magnify"><defs><filter height="300%" id="f6k53ix" width="300%" x="-1" y="-1"><feGaussianBlur result="blurOut" stdDeviation="2.0"/><feColorMatrix in="blurOut" result="blurOut2" type="matrix" values="0 0 0 0 0 0 0 0 0 0 0 0 0 0 0 0 0 0 .4 0"/><feOffset dx="4.0" dy="4.0" in="blurOut2" result="blurOut3"/><feBlend in="SourceGraphic" in2="blurOut3" mode="normal"/></filter></defs><g><rect fill="#FFC0CB" filter="url(#f6k53ix)" height="35.0938" style="stroke: #A80036; stroke-width: 1.5;" width="269" x="381" y="8"/><text fill="#000000" font-family="sans-serif" font-size="12" lengthAdjust="spacingAndGlyphs" textLength="255" x="388" y="22.457">_u3kEMD05Eeeoi7m4eFdz4w : SpecHierarchy</text><line style="stroke: #A80036; stroke-width: 1.5;" x1="382" x2="649" y1="27.0938" y2="27.0938"/><rect fill="#FEFECE" filter="url(#f6k53ix)" height="35.0938" style="stroke: #A80036; stroke-width: 1.5;" width="217" x="6" y="121"/><text fill="#000000" font-family="sans-serif" font-size="12" lengthAdjust="spacingAndGlyphs" textLength="203" x="13" y="135.457">Cancel order by customer : UseCase</text><line style="stroke: #A80036; stroke-width: 1.5;" x1="7" x2="222" y1="140.0938" y2="140.0938"/><rect fill="#FEFECE" filter="url(#f6k53ix)" height="35.0938" style="stroke: #A80036; stroke-width: 1.5;" width="209" x="411" y="347"/><text fill="#000000" font-family="sans-serif" font-size="12" lengthAdjust="spacingAndGlyphs" textLength="195" x="418" y="361.457">Place order by customer : UseCase</text><line style="stroke: #A80036; stroke-width: 1.5;" x1="412" x2="619" y1="366.0938" y2="366.0938"/><rect fill="#FEFECE" filter="url(#f6k53ix)" height="35.0938" style="stroke: #A80036; stroke-width: 1.5;" width="204" x="258.5" y="121"/><text fill="#000000" font-family="sans-serif" font-size="12" lengthAdjust="spacingAndGlyphs" textLength="190" x="265.5" y="135.457">View order by customer : UseCase</text><line style="stroke: #A80036; stroke-width: 1.5;" x1="259.5" x2="461.5" y1="140.0938" y2="140.0938"/><rect fill="#FEFECE" filter="url(#f6k53ix)" height="35.0938" style="stroke: #A80036; stroke-width: 1.5;" width="156" x="861.5" y="121"/><text fill="#000000" font-family="sans-serif" font-size="12" lengthAdjust="spacingAndGlyphs" textLength="142" x="868.5" y="135.457">DeleteOrderAction : Class</text><line style="stroke: #A80036; stroke-width: 1.5;" x1="862.5" x2="1016.5" y1="140.0938" y2="140.0938"/><rect fill="#FEFECE" filter="url(#f6k53ix)" height="35.0938" style="stroke: #A80036; stroke-width: 1.5;" width="198" x="1227.5" y="234"/><text fill="#000000" font-family="sans-serif" font-size="12" lengthAdjust="spacingAndGlyphs" textLength="184" x="1234.5" y="248.457">Delete Evaluation : DecisionNode</text><line style="stroke: #A80036; stroke-width: 1.5;" x1="1228.5" x2="1424.5" y1="253.0938" y2="253.0938"/><rect fill="#FEFECE" filter="url(#f6k53ix)" height="35.0938" style="stroke: #A80036; stroke-width: 1.5;" width="163" x="675" y="460"/><text fill="#000000" font-family="sans-serif" font-size="12" lengthAdjust="spacingAndGlyphs" textLength="149" x="682" y="474.457">DeleteOrderAction : Lifeline</text><line style="stroke: #A80036; stroke-width: 1.5;" x1="676" x2="837" y1="479.0938" y2="479.0938"/><rect fill="#FEFECE" filter="url(#f6k53ix)" height="35.0938" style="stroke: #A80036; stroke-width: 1.5;" width="268" x="924.5" y="234"/><text fill="#000000" font-family="sans-serif" font-size="12" lengthAdjust="spacingAndGlyphs" textLength="254" x="931.5" y="248.457">_s64VED05Eeeoi7m4eFdz4w : SpecHierarchy</text><line style="stroke: #A80036; stroke-width: 1.5;" x1="925.5" x2="1191.5" y1="253.0938" y2="253.0938"/><rect fill="#FEFECE" filter="url(#f6k53ix)" height="35.0938" style="stroke: #A80036; stroke-width: 1.5;" width="105" x="308" y="234"/><text fill="#000000" font-family="sans-serif" font-size="12" lengthAdjust="spacingAndGlyphs" textLength="91" x="315" y="248.457">Customer : Actor</text><line style="stroke: #A80036; stroke-width: 1.5;" x1="309" x2="412" y1="253.0938" y2="253.0938"/><rect fill="#FEFECE" filter="url(#f6k53ix)" height="35.0938" style="stroke: #A80036; stroke-width: 1.5;" width="89" x="1794" y="234"/><text fill="#000000" font-family="sans-serif" font-size="12" lengthAdjust="spacingAndGlyphs" textLength="75" x="1801" y="248.457">Action : Class</text><line style="stroke: #A80036; stroke-width: 1.5;" x1="1795" x2="1882" y1="253.0938" y2="253.0938"/><rect fill="#FEFECE" filter="url(#f6k53ix)" height="35.0938" style="stroke: #A80036; stroke-width: 1.5;" width="128" x="2306.5" y="347"/><text fill="#000000" font-family="sans-serif" font-size="12" lengthAdjust="spacingAndGlyphs" textLength="114" x="2313.5" y="361.457">Actions : Component</text><line style="stroke: #A80036; stroke-width: 1.5;" x1="2307.5" x2="2433.5" y1="366.0938" y2="366.0938"/><rect fill="#FEFECE" filter="url(#f6k53ix)" height="35.0938" style="stroke: #A80036; stroke-width: 1.5;" width="158" x="2177.5" y="460"/><text fill="#000000" font-family="sans-serif" font-size="12" lengthAdjust="spacingAndGlyphs" textLength="144" x="2184.5" y="474.457">ActionServlet : Component</text><line style="stroke: #A80036; stroke-width: 1.5;" x1="2178.5" x2="2334.5" y1="479.0938" y2="479.0938"/><rect fill="#FEFECE" filter="url(#f6k53ix)" height="35.0938" style="stroke: #A80036; stroke-width: 1.5;" width="147" x="2391" y="460"/><text fill="#000000" font-family="sans-serif" font-size="12" lengthAdjust="spacingAndGlyphs" textLength="133" x="2398" y="474.457">View (JSP) : Component</text><line style="stroke: #A80036; stroke-width: 1.5;" x1="2392" x2="2537" y1="479.0938" y2="479.0938"/><rect fill="#FEFECE" filter="url(#f6k53ix)" height="35.0938" style="stroke: #A80036; stroke-width: 1.5;" width="120" x="1419.5" y="347"/><text fill="#000000" font-family="sans-serif" font-size="12" lengthAdjust="spacingAndGlyphs" textLength="106" x="1426.5" y="361.457">LoginAction : Class</text><line style="stroke: #A80036; stroke-width: 1.5;" x1="1420.5" x2="1538.5" y1="366.0938" y2="366.0938"/><rect fill="#FEFECE" filter="url(#f6k53ix)" height="35.0938" style="stroke: #A80036; stroke-width: 1.5;" width="152" x="1574.5" y="347"/><text fill="#000000" font-family="sans-serif" font-size="12" lengthAdjust="spacingAndGlyphs" textLength="138" x="1581.5" y="361.457">DeleteUserAction : Class</text><line style="stroke: #A80036; stroke-width: 1.5;" x1="1575.5" x2="1725.5" y1="366.0938" y2="366.0938"/><rect fill="#FEFECE" filter="url(#f6k53ix)" height="35.0938" style="stroke: #A80036; stroke-width: 1.5;" width="153" x="1762" y="347"/><text fill="#000000" font-family="sans-serif" font-size="12" lengthAdjust="spacingAndGlyphs" textLength="139" x="1769" y="361.457">CreateUserAction : Class</text><line style="stroke: #A80036; stroke-width: 1.5;" x1="1763" x2="1914" y1="366.0938" y2="366.0938"/><rect fill="#FEFECE" filter="url(#f6k53ix)" height="35.0938" style="stroke: #A80036; stroke-width: 1.5;" width="160" x="1950.5" y="347"/><text fill="#000000" font-family="sans-serif" font-size="12" lengthAdjust="spacingAndGlyphs" textLength="146" x="1957.5" y="361.457">RequestProcessor : Class</text><line style="stroke: #A80036; stroke-width: 1.5;" x1="1951.5" x2="2109.5" y1="366.0938" y2="366.0938"/><rect fill="#FEFECE" filter="url(#f6k53ix)" height="35.0938" style="stroke: #A80036; stroke-width: 1.5;" width="126" x="2145.5" y="347"/><text fill="#000000" font-family="sans-serif" font-size="12" lengthAdjust="spacingAndGlyphs" textLength="112" x="2152.5" y="361.457">ActionServlet : Class</text><line style="stroke: #A80036; stroke-width: 1.5;" x1="2146.5" x2="2270.5" y1="366.0938" y2="366.0938"/><rect fill="#FEFECE" filter="url(#f6k53ix)" height="35.0938" style="stroke: #A80036; stroke-width: 1.5;" width="137" x="752" y="234"/><text fill="#000000" font-family="sans-serif" font-size="12" lengthAdjust="spacingAndGlyphs" textLength="123" x="759" y="248.457">OrderDelegate : Class</text><line style="stroke: #A80036; stroke-width: 1.5;" x1="753" x2="888" y1="253.0938" y2="253.0938"/><rect fill="#FEFECE" filter="url(#f6k53ix)" height="35.0938" style="stroke: #A80036; stroke-width: 1.5;" width="144" x="888.5" y="347"/><text fill="#000000" font-family="sans-serif" font-size="12" lengthAdjust="spacingAndGlyphs" textLength="130" x="895.5" y="361.457">OrderDelegate : Lifeline</text><line style="stroke: #A80036; stroke-width: 1.5;" x1="889.5" x2="1031.5" y1="366.0938" y2="366.0938"/><rect fill="#FEFECE" filter="url(#f6k53ix)" height="35.0938" style="stroke: #A80036; stroke-width: 1.5;" width="117" x="1108" y="460"/><text fill="#000000" font-family="sans-serif" font-size="12" lengthAdjust="spacingAndGlyphs" textLength="103" x="1115" y="474.457">Database : Lifeline</text><line style="stroke: #A80036; stroke-width: 1.5;" x1="1109" x2="1224" y1="479.0938" y2="479.0938"/><rect fill="#FEFECE" filter="url(#f6k53ix)" height="35.0938" style="stroke: #A80036; stroke-width: 1.5;" width="87" x="766" y="347"/><text fill="#000000" font-family="sans-serif" font-size="12" lengthAdjust="spacingAndGlyphs" textLength="73" x="773" y="361.457">Order : Class</text><line style="stroke: #A80036; stroke-width: 1.5;" x1="767" x2="852" y1="366.0938" y2="366.0938"/><rect fill="#FEFECE" filter="url(#f6k53ix)" height="35.0938" style="stroke: #A80036; stroke-width: 1.5;" width="250" x="1134.5" y="347"/><text fill="#000000" font-family="sans-serif" font-size="12" lengthAdjust="spacingAndGlyphs" textLength="236" x="1141.5" y="361.457">Navigates to order overview : OpaqueAction</text><line style="stroke: #A80036; stroke-width: 1.5;" x1="1135.5" x2="1383.5" y1="366.0938" y2="366.0938"/><rect fill="#FEFECE" filter="url(#f6k53ix)" height="35.0938" style="stroke: #A80036; stroke-width: 1.5;" width="100" x="706.5" y="573"/><text fill="#000000" font-family="sans-serif" font-size="12" lengthAdjust="spacingAndGlyphs" textLength="86" x="713.5" y="587.457">Servlet : Lifeline</text><line style="stroke: #A80036; stroke-width: 1.5;" x1="707.5" x2="805.5" y1="592.0938" y2="592.0938"/><rect fill="#FEFECE" filter="url(#f6k53ix)" height="35.0938" style="stroke: #A80036; stroke-width: 1.5;" width="118" x="615.5" y="686"/><text fill="#000000" font-family="sans-serif" font-size="12" lengthAdjust="spacingAndGlyphs" textLength="104" x="622.5" y="700.457">Customer : Lifeline</text><line style="stroke: #A80036; stroke-width: 1.5;" x1="616.5" x2="732.5" y1="705.0938" y2="705.0938"/><rect fill="#FEFECE" filter="url(#f6k53ix)" height="35.0938" style="stroke: #A80036; stroke-width: 1.5;" width="134" x="771.5" y="686"/><text fill="#000000" font-family="sans-serif" font-size="12" lengthAdjust="spacingAndGlyphs" textLength="120" x="778.5" y="700.457">OrderList.jsp : Lifeline</text><line style="stroke: #A80036; stroke-width: 1.5;" x1="772.5" x2="904.5" y1="705.0938" y2="705.0938"/><path d="M451.46,43.076 C418.045,51.812 376.521,62.804 339.5,73 C282.105,88.807 216.716,107.645 171.278,120.869 " fill="none" style="stroke: #A80036; stroke-width: 1.0;"/><text fill="#000000" font-family="sans-serif" font-size="13" lengthAdjust="spacingAndGlyphs" textLength="58" x="340.5" y="87.4951">RelatedTo</text><path d="M515.081,43.262 C514.378,72.321 512.99,133.934 512.5,186 C511.944,245.173 513.909,315.43 514.927,346.86 " fill="none" style="stroke: #A80036; stroke-width: 1.0;"/><text fill="#000000" font-family="sans-serif" font-size="13" lengthAdjust="spacingAndGlyphs" textLength="58" x="513.5" y="200.4951">RelatedTo</text><path d="M525.537,346.647 C530.447,337.977 536.208,327.127 540.5,317 C561.068,268.469 568.404,256.084 576.5,204 C586.06,142.501 547.398,73.964 527.15,43.124 " fill="none" style="stroke: #A80036; stroke-width: 1.0;"/><text fill="#000000" font-family="sans-serif" font-size="13" lengthAdjust="spacingAndGlyphs" textLength="58" x="579.5" y="200.4951">RelatedTo</text><path d="M479.971,43.118 C463.979,51.242 445.207,61.699 429.5,73 C409.534,87.365 389.276,107.041 375.924,120.871 " fill="none" style="stroke: #A80036; stroke-width: 1.0;"/><text fill="#000000" font-family="sans-serif" font-size="13" lengthAdjust="spacingAndGlyphs" textLength="58" x="430.5" y="87.4951">RelatedTo</text><path d="M578.977,43.118 C659.141,64.104 796.242,99.996 876.282,120.95 " fill="none" style="stroke: #A80036; stroke-width: 1.0;"/><text fill="#000000" font-family="sans-serif" font-size="13" lengthAdjust="spacingAndGlyphs" textLength="58" x="754.5" y="87.4951">RelatedTo</text><path d="M997.438,156.118 C1070.61,177.104 1195.74,212.996 1268.8,233.95 " fill="none" style="stroke: #A80036; stroke-width: 1.0;"/><text fill="#000000" font-family="sans-serif" font-size="13" lengthAdjust="spacingAndGlyphs" textLength="58" x="1157.5" y="200.4951">RelatedTo</text><path d="M861.434,153.87 C816.022,166.669 762.39,190.432 734.5,234 C687.891,306.809 729.786,418.04 748.528,459.846 " fill="none" style="stroke: #A80036; stroke-width: 1.0;"/><text fill="#000000" font-family="sans-serif" font-size="13" lengthAdjust="spacingAndGlyphs" textLength="58" x="715.5" y="313.4951">RelatedTo</text><path d="M957.316,156.118 C979.749,177.044 1018.07,212.789 1040.56,233.769 " fill="none" style="stroke: #A80036; stroke-width: 1.0;"/><text fill="#000000" font-family="sans-serif" font-size="13" lengthAdjust="spacingAndGlyphs" textLength="58" x="1007.5" y="200.4951">RelatedTo</text><path d="M169.561,164.344 C216.618,185.578 283.007,215.533 323.822,233.95 " fill="none" style="stroke: #A80036; stroke-width: 1.0; stroke-dasharray: 7.0,7.0;"/><polygon fill="none" points="166.68,170.724,151.329,156.118,172.438,157.963,166.68,170.724" style="stroke: #A80036; stroke-width: 1.0;"/><text fill="#000000" font-family="sans-serif" font-size="13" lengthAdjust="spacingAndGlyphs" textLength="37" x="253.5" y="200.4951">Usage</text><path d="M383.806,269.211 C401.973,282.235 427.837,300.773 450.5,317 C458.739,322.899 467.567,329.217 475.978,335.234 " fill="none" style="stroke: #A80036; stroke-width: 1.0; stroke-dasharray: 7.0,7.0;"/><polygon fill="none" points="480.139,329.604,492.333,346.934,471.993,340.991,480.139,329.604" style="stroke: #A80036; stroke-width: 1.0;"/><text fill="#000000" font-family="sans-serif" font-size="13" lengthAdjust="spacingAndGlyphs" textLength="37" x="451.5" y="313.4951">Usage</text><path d="M360.5,176.568 C360.5,195.965 360.5,218.751 360.5,233.847 " fill="none" style="stroke: #A80036; stroke-width: 1.0; stroke-dasharray: 7.0,7.0;"/><polygon fill="none" points="353.5,176.359,360.5,156.359,367.5,176.358,353.5,176.359" style="stroke: #A80036; stroke-width: 1.0;"/><text fill="#000000" font-family="sans-serif" font-size="13" lengthAdjust="spacingAndGlyphs" textLength="37" x="361.5" y="200.4951">Usage</text><path d="M1017.71,149.156 C1198.3,171.454 1640.22,226.018 1788.82,244.366 " fill="none" style="stroke: #A80036; stroke-width: 1.0;"/><polygon fill="#A80036" points="1793.98,245.004,1785.5395,239.9287,1789.0179,244.3898,1784.5568,247.8682,1793.98,245.004" style="stroke: #A80036; stroke-width: 1.0;"/><text fill="#000000" font-family="sans-serif" font-size="13" lengthAdjust="spacingAndGlyphs" textLength="83" x="1444.5" y="200.4951">Generalization</text><path d="M1883.24,256.382 C1947.1,262.47 2067.82,276.006 2168.5,299 C2223.77,311.623 2285.64,332.4 2326.17,346.953 " fill="none" style="stroke: #A80036; stroke-width: 1.0;"/><text fill="#000000" font-family="sans-serif" font-size="13" lengthAdjust="spacingAndGlyphs" textLength="58" x="2231.5" y="313.4951">RelatedTo</text><path d="M2299.61,391.709 C2290.61,397.337 2282.21,404.048 2275.5,412 C2264.05,425.559 2259.5,445.756 2257.69,459.928 " fill="none" style="stroke: #A80036; stroke-width: 1.0; stroke-dasharray: 7.0,7.0;"/><polygon fill="none" points="2296.47,385.454,2317.4,382.177,2303.08,397.794,2296.47,385.454" style="stroke: #A80036; stroke-width: 1.0;"/><text fill="#000000" font-family="sans-serif" font-size="13" lengthAdjust="spacingAndGlyphs" textLength="72" x="2276.5" y="426.4951">Dependency</text><path d="M2408.6,382.025 C2421.93,389.47 2435.94,399.449 2445.5,412 C2451.76,420.215 2455.96,430.456 2458.78,440.341 " fill="none" style="stroke: #A80036; stroke-width: 1.0; stroke-dasharray: 7.0,7.0;"/><polygon fill="none" points="2465.63,438.909,2462.92,459.925,2451.94,441.807,2465.63,438.909" style="stroke: #A80036; stroke-width: 1.0;"/><text fill="#000000" font-family="sans-serif" font-size="13" lengthAdjust="spacingAndGlyphs" textLength="72" x="2455.5" y="426.4951">Dependency</text><path d="M2358.45,402.021 C2357.34,411.721 2358.23,421.775 2363.5,430 C2372.14,443.492 2385.8,453.123 2400.31,459.979 " fill="none" style="stroke: #A80036; stroke-width: 1.0; stroke-dasharray: 7.0,7.0;"/><polygon fill="none" points="2351.74,400.017,2363.21,382.2,2365.35,403.28,2351.74,400.017" style="stroke: #A80036; stroke-width: 1.0;"/><text fill="#000000" font-family="sans-serif" font-size="13" lengthAdjust="spacingAndGlyphs" textLength="72" x="2364.5" y="426.4951">Dependency</text><path d="M1789.05,260.489 C1745.6,268.179 1681.01,281.256 1626.5,299 C1585.95,312.199 1541.37,332.66 1512.05,346.988 " fill="none" style="stroke: #A80036; stroke-width: 1.0;"/><polygon fill="#A80036" points="1793.97,259.624,1784.4108,257.253,1789.0465,260.495,1785.8045,265.1307,1793.97,259.624" style="stroke: #A80036; stroke-width: 1.0;"/><text fill="#000000" font-family="sans-serif" font-size="13" lengthAdjust="spacingAndGlyphs" textLength="83" x="1627.5" y="313.4951">Generalization</text><path d="M1797.99,271.303 C1781.45,279.353 1762.3,289.156 1745.5,299 C1719.87,314.017 1691.89,333.404 1672.98,346.986 " fill="none" style="stroke: #A80036; stroke-width: 1.0;"/><polygon fill="#A80036" points="1802.58,269.081,1792.736,269.3898,1798.0769,271.2539,1796.2127,276.5948,1802.58,269.081" style="stroke: #A80036; stroke-width: 1.0;"/><text fill="#000000" font-family="sans-serif" font-size="13" lengthAdjust="spacingAndGlyphs" textLength="83" x="1746.5" y="313.4951">Generalization</text><path d="M1838.5,274.531 C1838.5,295.818 1838.5,327.59 1838.5,346.847 " fill="none" style="stroke: #A80036; stroke-width: 1.0;"/><polygon fill="#A80036" points="1838.5,269.359,1834.5,278.359,1838.5,274.359,1842.5,278.359,1838.5,269.359" style="stroke: #A80036; stroke-width: 1.0;"/><text fill="#000000" font-family="sans-serif" font-size="13" lengthAdjust="spacingAndGlyphs" textLength="83" x="1839.5" y="313.4951">Generalization</text><path d="M1873.88,269.019 C1891.46,277.517 1912.86,288.316 1931.5,299 C1957.84,314.1 1986.81,333.298 2006.57,346.809 " fill="none" style="stroke: #A80036; stroke-width: 1.0;"/><text fill="#000000" font-family="sans-serif" font-size="13" lengthAdjust="spacingAndGlyphs" textLength="68" x="1960.5" y="313.4951">Association</text><path d="M1883.2,261.195 C1923.83,269.509 1985.22,283.108 2037.5,299 C2083.34,312.935 2134.6,332.872 2168.93,346.882 " fill="none" style="stroke: #A80036; stroke-width: 1.0;"/><text fill="#000000" font-family="sans-serif" font-size="13" lengthAdjust="spacingAndGlyphs" textLength="68" x="2091.5" y="313.4951">Association</text><path d="M921.684,156.118 C903.632,172.957 875.292,199.391 853.191,220.007 " fill="none" style="stroke: #A80036; stroke-width: 1.0; stroke-dasharray: 7.0,7.0;"/><polygon fill="none" points="857.837,225.245,838.437,233.769,848.288,215.008,857.837,225.245" style="stroke: #A80036; stroke-width: 1.0;"/><text fill="#000000" font-family="sans-serif" font-size="13" lengthAdjust="spacingAndGlyphs" textLength="72" x="888.5" y="200.4951">Dependency</text><path d="M852.502,269.016 C867.123,277.193 884.305,287.722 898.5,299 C916.742,313.493 934.893,333.146 946.796,346.937 " fill="none" style="stroke: #A80036; stroke-width: 1.0;"/><text fill="#000000" font-family="sans-serif" font-size="13" lengthAdjust="spacingAndGlyphs" textLength="58" x="920.5" y="313.4951">RelatedTo</text><path d="M888.219,379.525 C830.266,391.117 757.88,406.527 753.5,412 C742.853,425.304 745.907,445.548 750.146,459.801 " fill="none" style="stroke: #A80036; stroke-width: 1.0;"/><text fill="#000000" font-family="sans-serif" font-size="13" lengthAdjust="spacingAndGlyphs" textLength="122" x="754.5" y="426.4951">Message : synchCall</text><path d="M943.54,382.16 C928.323,396.388 904.85,416.618 881.5,430 C860.105,442.262 834.878,452.369 812.71,459.992 " fill="none" style="stroke: #A80036; stroke-width: 1.0;"/><text fill="#000000" font-family="sans-serif" font-size="13" lengthAdjust="spacingAndGlyphs" textLength="122" x="908.5" y="426.4951">Message : synchCall</text><path d="M991.34,382.118 C1030.29,403.104 1096.9,438.996 1135.79,459.95 " fill="none" style="stroke: #A80036; stroke-width: 1.0;"/><text fill="#000000" font-family="sans-serif" font-size="13" lengthAdjust="spacingAndGlyphs" textLength="122" x="1077.5" y="426.4951">Message : synchCall</text><path d="M1032.64,374.31 C1101.76,383.492 1197.22,398.411 1208.5,412 C1221.13,427.218 1205.12,446.398 1189.36,459.873 " fill="none" style="stroke: #A80036; stroke-width: 1.0;"/><text fill="#000000" font-family="sans-serif" font-size="13" lengthAdjust="spacingAndGlyphs" textLength="122" x="1214.5" y="426.4951">Message : synchCall</text><path d="M818.829,269.359 C817.327,284.523 815.067,307.328 813.147,326.695 " fill="none" style="stroke: #A80036; stroke-width: 1.0; stroke-dasharray: 7.0,7.0;"/><polygon fill="none" points="820.089,327.634,811.15,346.847,806.157,326.254,820.089,327.634" style="stroke: #A80036; stroke-width: 1.0;"/><text fill="#000000" font-family="sans-serif" font-size="13" lengthAdjust="spacingAndGlyphs" textLength="72" x="817.5" y="313.4951">Dependency</text><path d="M1316.32,269.359 C1303.66,290.343 1282.16,325.958 1269.55,346.847 " fill="none" style="stroke: #A80036; stroke-width: 1.0;"/><text fill="#000000" font-family="sans-serif" font-size="13" lengthAdjust="spacingAndGlyphs" textLength="68" x="1298.5" y="313.4951">ControlFlow</text><path d="M705.813,495.14 C692.302,502.151 679.306,511.833 671.5,525 C659.173,545.795 681.502,562.15 706.357,573.188 " fill="none" style="stroke: #A80036; stroke-width: 1.0;"/><text fill="#000000" font-family="sans-serif" font-size="13" lengthAdjust="spacingAndGlyphs" textLength="122" x="672.5" y="539.4951">Message : synchCall</text><path d="M778.924,572.844 C792.671,560.442 806.418,542.67 799.5,525 C795.01,513.532 786.219,503.199 777.749,495.201 " fill="none" style="stroke: #A80036; stroke-width: 1.0;"/><text fill="#000000" font-family="sans-serif" font-size="13" lengthAdjust="spacingAndGlyphs" textLength="122" x="802.5" y="539.4951">Message : synchCall</text><path d="M706.259,607.91 C692.588,614.939 679.391,624.6881 671.5,638 C662.925,652.4645 665.429,672.1228 668.973,685.9223 " fill="none" style="stroke: #A80036; stroke-width: 1.0;"/><text fill="#000000" font-family="sans-serif" font-size="13" lengthAdjust="spacingAndGlyphs" textLength="122" x="672.5" y="652.4951">Message : synchCall</text><path d="M773.296,608 C781.623,616.58 791.567,627.4567 799.5,638 C811.066,653.3707 822.208,672.3565 829.6,685.7376 " fill="none" style="stroke: #A80036; stroke-width: 1.0;"/><text fill="#000000" font-family="sans-serif" font-size="13" lengthAdjust="spacingAndGlyphs" textLength="122" x="812.5" y="652.4951">Message : synchCall</text></g></svg>