<?xml version="1.0" encoding="UTF-8" standalone="no"?><svg xmlns="http://www.w3.org/2000/svg" xmlns:xlink="http://www.w3.org/1999/xlink" contentScriptType="application/ecmascript" contentStyleType="text/css" height="391px" preserveAspectRatio="none" style="width:1668px;height:391px;" version="1.1" viewBox="0 0 1668 391" width="1668px" zoomAndPan="magnify"><defs><filter height="300%" id="fmnbrn7" width="300%" x="-1" y="-1"><feGaussianBlur result="blurOut" stdDeviation="2.0"/><feColorMatrix in="blurOut" result="blurOut2" type="matrix" values="0 0 0 0 0 0 0 0 0 0 0 0 0 0 0 0 0 0 .4 0"/><feOffset dx="4.0" dy="4.0" in="blurOut2" result="blurOut3"/><feBlend in="SourceGraphic" in2="blurOut3" mode="normal"/></filter></defs><g><rect fill="#FFC0CB" filter="url(#fmnbrn7)" height="35.0938" style="stroke: #A80036; stroke-width: 1.5;" width="269" x="349" y="8"/><text fill="#000000" font-family="sans-serif" font-size="12" lengthAdjust="spacingAndGlyphs" textLength="255" x="356" y="22.457">_u3kEMD05Eeeoi7m4eFdz4w : SpecHierarchy</text><line style="stroke: #A80036; stroke-width: 1.5;" x1="350" x2="617" y1="27.0938" y2="27.0938"/><rect fill="#FEFECE" filter="url(#fmnbrn7)" height="35.0938" style="stroke: #A80036; stroke-width: 1.5;" width="217" x="6" y="121"/><text fill="#000000" font-family="sans-serif" font-size="12" lengthAdjust="spacingAndGlyphs" textLength="203" x="13" y="135.457">Cancel order by customer : UseCase</text><line style="stroke: #A80036; stroke-width: 1.5;" x1="7" x2="222" y1="140.0938" y2="140.0938"/><rect fill="#FEFECE" filter="url(#fmnbrn7)" height="35.0938" style="stroke: #A80036; stroke-width: 1.5;" width="209" x="258" y="121"/><text fill="#000000" font-family="sans-serif" font-size="12" lengthAdjust="spacingAndGlyphs" textLength="195" x="265" y="135.457">Place order by customer : UseCase</text><line style="stroke: #A80036; stroke-width: 1.5;" x1="259" x2="466" y1="140.0938" y2="140.0938"/><rect fill="#FEFECE" filter="url(#fmnbrn7)" height="35.0938" style="stroke: #A80036; stroke-width: 1.5;" width="204" x="502.5" y="121"/><text fill="#000000" font-family="sans-serif" font-size="12" lengthAdjust="spacingAndGlyphs" textLength="190" x="509.5" y="135.457">View order by customer : UseCase</text><line style="stroke: #A80036; stroke-width: 1.5;" x1="503.5" x2="705.5" y1="140.0938" y2="140.0938"/><rect fill="#FEFECE" filter="url(#fmnbrn7)" height="35.0938" style="stroke: #A80036; stroke-width: 1.5;" width="156" x="741.5" y="121"/><text fill="#000000" font-family="sans-serif" font-size="12" lengthAdjust="spacingAndGlyphs" textLength="142" x="748.5" y="135.457">DeleteOrderAction : Class</text><line style="stroke: #A80036; stroke-width: 1.5;" x1="742.5" x2="896.5" y1="140.0938" y2="140.0938"/><rect fill="#FEFECE" filter="url(#fmnbrn7)" height="35.0938" style="stroke: #A80036; stroke-width: 1.5;" width="198" x="504.5" y="234"/><text fill="#000000" font-family="sans-serif" font-size="12" lengthAdjust="spacingAndGlyphs" textLength="184" x="511.5" y="248.457">Delete Evaluation : DecisionNode</text><line style="stroke: #A80036; stroke-width: 1.5;" x1="505.5" x2="701.5" y1="253.0938" y2="253.0938"/><rect fill="#FEFECE" filter="url(#fmnbrn7)" height="35.0938" style="stroke: #A80036; stroke-width: 1.5;" width="163" x="738" y="234"/><text fill="#000000" font-family="sans-serif" font-size="12" lengthAdjust="spacingAndGlyphs" textLength="149" x="745" y="248.457">DeleteOrderAction : Lifeline</text><line style="stroke: #A80036; stroke-width: 1.5;" x1="739" x2="900" y1="253.0938" y2="253.0938"/><rect fill="#FEFECE" filter="url(#fmnbrn7)" height="35.0938" style="stroke: #A80036; stroke-width: 1.5;" width="268" x="936.5" y="234"/><text fill="#000000" font-family="sans-serif" font-size="12" lengthAdjust="spacingAndGlyphs" textLength="254" x="943.5" y="248.457">_s64VED05Eeeoi7m4eFdz4w : SpecHierarchy</text><line style="stroke: #A80036; stroke-width: 1.5;" x1="937.5" x2="1203.5" y1="253.0938" y2="253.0938"/><rect fill="#FEFECE" filter="url(#fmnbrn7)" height="35.0938" style="stroke: #A80036; stroke-width: 1.5;" width="219" x="716" y="347"/><text fill="#000000" font-family="sans-serif" font-size="12" lengthAdjust="spacingAndGlyphs" textLength="205" x="723" y="361.457">Cancel order by employee : UseCase</text><line style="stroke: #A80036; stroke-width: 1.5;" x1="717" x2="934" y1="366.0938" y2="366.0938"/><rect fill="#FEFECE" filter="url(#fmnbrn7)" height="35.0938" style="stroke: #A80036; stroke-width: 1.5;" width="201" x="970" y="347"/><text fill="#000000" font-family="sans-serif" font-size="12" lengthAdjust="spacingAndGlyphs" textLength="187" x="977" y="361.457">Edit order by employee : UseCase</text><line style="stroke: #A80036; stroke-width: 1.5;" x1="971" x2="1170" y1="366.0938" y2="366.0938"/><rect fill="#FEFECE" filter="url(#fmnbrn7)" height="35.0938" style="stroke: #A80036; stroke-width: 1.5;" width="206" x="1206.5" y="347"/><text fill="#000000" font-family="sans-serif" font-size="12" lengthAdjust="spacingAndGlyphs" textLength="192" x="1213.5" y="361.457">View order by employee : UseCase</text><line style="stroke: #A80036; stroke-width: 1.5;" x1="1207.5" x2="1411.5" y1="366.0938" y2="366.0938"/><rect fill="#FEFECE" filter="url(#fmnbrn7)" height="35.0938" style="stroke: #A80036; stroke-width: 1.5;" width="211" x="1448" y="347"/><text fill="#000000" font-family="sans-serif" font-size="12" lengthAdjust="spacingAndGlyphs" textLength="197" x="1455" y="361.457">Place order by employee : UseCase</text><line style="stroke: #A80036; stroke-width: 1.5;" x1="1449" x2="1658" y1="366.0938" y2="366.0938"/><path d="M428.257,43.118 C358.492,64.104 239.175,99.996 169.517,120.95 " fill="none" style="stroke: #A80036; stroke-width: 1.0;"/><text fill="#000000" font-family="sans-serif" font-size="13" lengthAdjust="spacingAndGlyphs" textLength="58" x="322.5" y="87.4951">RelatedTo</text><path d="M465.385,43.118 C442.574,64.044 403.608,99.789 380.739,120.769 " fill="none" style="stroke: #A80036; stroke-width: 1.0;"/><text fill="#000000" font-family="sans-serif" font-size="13" lengthAdjust="spacingAndGlyphs" textLength="58" x="431.5" y="87.4951">RelatedTo</text><path d="M501.615,43.118 C524.426,64.044 563.392,99.789 586.261,120.769 " fill="none" style="stroke: #A80036; stroke-width: 1.0;"/><text fill="#000000" font-family="sans-serif" font-size="13" lengthAdjust="spacingAndGlyphs" textLength="58" x="552.5" y="87.4951">RelatedTo</text><path d="M533.803,43.118 C597.328,64.104 705.975,99.996 769.403,120.95 " fill="none" style="stroke: #A80036; stroke-width: 1.0;"/><text fill="#000000" font-family="sans-serif" font-size="13" lengthAdjust="spacingAndGlyphs" textLength="58" x="673.5" y="87.4951">RelatedTo</text><path d="M787.163,156.118 C746.325,177.104 676.481,212.996 635.705,233.95 " fill="none" style="stroke: #A80036; stroke-width: 1.0;"/><text fill="#000000" font-family="sans-serif" font-size="13" lengthAdjust="spacingAndGlyphs" textLength="58" x="725.5" y="200.4951">RelatedTo</text><path d="M819.5,156.359 C819.5,177.343 819.5,212.958 819.5,233.847 " fill="none" style="stroke: #A80036; stroke-width: 1.0;"/><text fill="#000000" font-family="sans-serif" font-size="13" lengthAdjust="spacingAndGlyphs" textLength="58" x="820.5" y="200.4951">RelatedTo</text><path d="M857.077,156.118 C904.533,177.104 985.694,212.996 1033.08,233.95 " fill="none" style="stroke: #A80036; stroke-width: 1.0;"/><text fill="#000000" font-family="sans-serif" font-size="13" lengthAdjust="spacingAndGlyphs" textLength="58" x="960.5" y="200.4951">RelatedTo</text><path d="M949.816,269.047 C909.59,276.556 871.051,286.5728 855.5,299 C840.546,310.9504 832.703,332.0748 828.841,346.8832 " fill="none" style="stroke: #A80036; stroke-width: 1.0;"/><text fill="#000000" font-family="sans-serif" font-size="13" lengthAdjust="spacingAndGlyphs" textLength="58" x="856.5" y="313.4951">RelatedTo</text><path d="M862.029,346.9501 C908.279,325.9961 987.5,290.1041 1033.82,269.118 " fill="none" style="stroke: #A80036; stroke-width: 1.0;"/><text fill="#000000" font-family="sans-serif" font-size="13" lengthAdjust="spacingAndGlyphs" textLength="58" x="963.5" y="313.4951">RelatedTo</text><path d="M1070.5,269.359 C1070.5,290.3428 1070.5,325.9581 1070.5,346.8465 " fill="none" style="stroke: #A80036; stroke-width: 1.0;"/><text fill="#000000" font-family="sans-serif" font-size="13" lengthAdjust="spacingAndGlyphs" textLength="58" x="1071.5" y="313.4951">RelatedTo</text><path d="M1106.28,269.118 C1151.47,290.1041 1228.75,325.9961 1273.87,346.9501 " fill="none" style="stroke: #A80036; stroke-width: 1.0;"/><text fill="#000000" font-family="sans-serif" font-size="13" lengthAdjust="spacingAndGlyphs" textLength="58" x="1204.5" y="313.4951">RelatedTo</text><path d="M1142.55,269.058 C1233.8,290.0292 1390.12,325.9541 1481.4,346.9308 " fill="none" style="stroke: #A80036; stroke-width: 1.0;"/><text fill="#000000" font-family="sans-serif" font-size="13" lengthAdjust="spacingAndGlyphs" textLength="58" x="1341.5" y="313.4951">RelatedTo</text></g></svg>