<?xml version="1.0" encoding="UTF-8" standalone="no"?><svg xmlns="http://www.w3.org/2000/svg" xmlns:xlink="http://www.w3.org/1999/xlink" contentScriptType="application/ecmascript" contentStyleType="text/css" height="504px" preserveAspectRatio="none" style="width:2166px;height:504px;" version="1.1" viewBox="0 0 2166 504" width="2166px" zoomAndPan="magnify"><defs><filter height="300%" id="fxsrb2o" width="300%" x="-1" y="-1"><feGaussianBlur result="blurOut" stdDeviation="2.0"/><feColorMatrix in="blurOut" result="blurOut2" type="matrix" values="0 0 0 0 0 0 0 0 0 0 0 0 0 0 0 0 0 0 .4 0"/><feOffset dx="4.0" dy="4.0" in="blurOut2" result="blurOut3"/><feBlend in="SourceGraphic" in2="blurOut3" mode="normal"/></filter></defs><g><rect fill="#FFC0CB" filter="url(#fxsrb2o)" height="35.0938" style="stroke: #A80036; stroke-width: 1.5;" width="264" x="1319.5" y="8"/><text fill="#000000" font-family="sans-serif" font-size="12" lengthAdjust="spacingAndGlyphs" textLength="250" x="1326.5" y="22.457">_SoI2gD04Eeeoi7m4eFdz4w : SpecHierarchy</text><line style="stroke: #A80036; stroke-width: 1.5;" x1="1320.5" x2="1582.5" y1="27.0938" y2="27.0938"/><rect fill="#FEFECE" filter="url(#fxsrb2o)" height="35.0938" style="stroke: #A80036; stroke-width: 1.5;" width="153" x="781" y="121"/><text fill="#000000" font-family="sans-serif" font-size="12" lengthAdjust="spacingAndGlyphs" textLength="139" x="788" y="135.457">CreateUserAction : Class</text><line style="stroke: #A80036; stroke-width: 1.5;" x1="782" x2="933" y1="140.0938" y2="140.0938"/><rect fill="#FEFECE" filter="url(#fxsrb2o)" height="35.0938" style="stroke: #A80036; stroke-width: 1.5;" width="152" x="1539.5" y="347"/><text fill="#000000" font-family="sans-serif" font-size="12" lengthAdjust="spacingAndGlyphs" textLength="138" x="1546.5" y="361.457">DeleteUserAction : Class</text><line style="stroke: #A80036; stroke-width: 1.5;" x1="1540.5" x2="1690.5" y1="366.0938" y2="366.0938"/><rect fill="#FEFECE" filter="url(#fxsrb2o)" height="35.0938" style="stroke: #A80036; stroke-width: 1.5;" width="261" x="858" y="460"/><text fill="#000000" font-family="sans-serif" font-size="12" lengthAdjust="spacingAndGlyphs" textLength="247" x="865" y="474.457">_-1Zr0D03Eeeoi7m4eFdz4w : SpecHierarchy</text><line style="stroke: #A80036; stroke-width: 1.5;" x1="859" x2="1118" y1="479.0938" y2="479.0938"/><rect fill="#FEFECE" filter="url(#fxsrb2o)" height="35.0938" style="stroke: #A80036; stroke-width: 1.5;" width="155" x="780" y="234"/><text fill="#000000" font-family="sans-serif" font-size="12" lengthAdjust="spacingAndGlyphs" textLength="141" x="787" y="248.457">Add Customer : UseCase</text><line style="stroke: #A80036; stroke-width: 1.5;" x1="781" x2="934" y1="253.0938" y2="253.0938"/><rect fill="#FEFECE" filter="url(#fxsrb2o)" height="35.0938" style="stroke: #A80036; stroke-width: 1.5;" width="155" x="6" y="234"/><text fill="#000000" font-family="sans-serif" font-size="12" lengthAdjust="spacingAndGlyphs" textLength="141" x="13" y="248.457">Add Employee : UseCase</text><line style="stroke: #A80036; stroke-width: 1.5;" x1="7" x2="160" y1="253.0938" y2="253.0938"/><rect fill="#FEFECE" filter="url(#fxsrb2o)" height="35.0938" style="stroke: #A80036; stroke-width: 1.5;" width="135" x="196" y="234"/><text fill="#000000" font-family="sans-serif" font-size="12" lengthAdjust="spacingAndGlyphs" textLength="121" x="203" y="248.457">Add Admin : UseCase</text><line style="stroke: #A80036; stroke-width: 1.5;" x1="197" x2="330" y1="253.0938" y2="253.0938"/><rect fill="#FEFECE" filter="url(#fxsrb2o)" height="35.0938" style="stroke: #A80036; stroke-width: 1.5;" width="160" x="366.5" y="234"/><text fill="#000000" font-family="sans-serif" font-size="12" lengthAdjust="spacingAndGlyphs" textLength="146" x="373.5" y="248.457">CreateUserAction : Lifeline</text><line style="stroke: #A80036; stroke-width: 1.5;" x1="367.5" x2="525.5" y1="253.0938" y2="253.0938"/><rect fill="#FEFECE" filter="url(#fxsrb2o)" height="35.0938" style="stroke: #A80036; stroke-width: 1.5;" width="183" x="562" y="234"/><text fill="#000000" font-family="sans-serif" font-size="12" lengthAdjust="spacingAndGlyphs" textLength="169" x="569" y="248.457">Data validation : DecisionNode</text><line style="stroke: #A80036; stroke-width: 1.5;" x1="563" x2="744" y1="253.0938" y2="253.0938"/><rect fill="#FEFECE" filter="url(#fxsrb2o)" height="35.0938" style="stroke: #A80036; stroke-width: 1.5;" width="263" x="1361" y="234"/><text fill="#000000" font-family="sans-serif" font-size="12" lengthAdjust="spacingAndGlyphs" textLength="249" x="1368" y="248.457">_zf1hwD03Eeeoi7m4eFdz4w : SpecHierarchy</text><line style="stroke: #A80036; stroke-width: 1.5;" x1="1362" x2="1623" y1="253.0938" y2="253.0938"/><rect fill="#FEFECE" filter="url(#fxsrb2o)" height="35.0938" style="stroke: #A80036; stroke-width: 1.5;" width="159" x="1154" y="460"/><text fill="#000000" font-family="sans-serif" font-size="12" lengthAdjust="spacingAndGlyphs" textLength="145" x="1161" y="474.457">DeleteUserAction : Lifeline</text><line style="stroke: #A80036; stroke-width: 1.5;" x1="1155" x2="1312" y1="479.0938" y2="479.0938"/><rect fill="#FEFECE" filter="url(#fxsrb2o)" height="35.0938" style="stroke: #A80036; stroke-width: 1.5;" width="184" x="1348.5" y="460"/><text fill="#000000" font-family="sans-serif" font-size="12" lengthAdjust="spacingAndGlyphs" textLength="170" x="1355.5" y="474.457">User is deleted : OpaqueAction</text><line style="stroke: #A80036; stroke-width: 1.5;" x1="1349.5" x2="1531.5" y1="479.0938" y2="479.0938"/><rect fill="#FEFECE" filter="url(#fxsrb2o)" height="35.0938" style="stroke: #A80036; stroke-width: 1.5;" width="180" x="1567.5" y="460"/><text fill="#000000" font-family="sans-serif" font-size="12" lengthAdjust="spacingAndGlyphs" textLength="166" x="1574.5" y="474.457">Remove Customer : UseCase</text><line style="stroke: #A80036; stroke-width: 1.5;" x1="1568.5" x2="1746.5" y1="479.0938" y2="479.0938"/><rect fill="#FEFECE" filter="url(#fxsrb2o)" height="35.0938" style="stroke: #A80036; stroke-width: 1.5;" width="180" x="1782.5" y="460"/><text fill="#000000" font-family="sans-serif" font-size="12" lengthAdjust="spacingAndGlyphs" textLength="166" x="1789.5" y="474.457">Remove Employee : UseCase</text><line style="stroke: #A80036; stroke-width: 1.5;" x1="1783.5" x2="1961.5" y1="479.0938" y2="479.0938"/><rect fill="#FEFECE" filter="url(#fxsrb2o)" height="35.0938" style="stroke: #A80036; stroke-width: 1.5;" width="160" x="1997.5" y="460"/><text fill="#000000" font-family="sans-serif" font-size="12" lengthAdjust="spacingAndGlyphs" textLength="146" x="2004.5" y="474.457">Remove Admin : UseCase</text><line style="stroke: #A80036; stroke-width: 1.5;" x1="1998.5" x2="2156.5" y1="479.0938" y2="479.0938"/><rect fill="#FEFECE" filter="url(#fxsrb2o)" height="35.0938" style="stroke: #A80036; stroke-width: 1.5;" width="284" x="1041.5" y="234"/><text fill="#000000" font-family="sans-serif" font-size="12" lengthAdjust="spacingAndGlyphs" textLength="270" x="1048.5" y="248.457">_2wXEMD4wEeeZbuCWOdhxUQ : SpecHierarchy</text><line style="stroke: #A80036; stroke-width: 1.5;" x1="1042.5" x2="1324.5" y1="253.0938" y2="253.0938"/><path d="M1362.89,43.058 C1246.63,64.785 1044.47,102.562 934.355,123.138 " fill="none" style="stroke: #A80036; stroke-width: 1.0;"/><text fill="#000000" font-family="sans-serif" font-size="13" lengthAdjust="spacingAndGlyphs" textLength="58" x="1191.5" y="87.4951">RelatedTo</text><path d="M1475.49,43.021 C1518.57,74.336 1607.7,147.043 1641.5,234 C1656.54,272.686 1637.31,321.404 1624.76,346.629 " fill="none" style="stroke: #A80036; stroke-width: 1.0;"/><text fill="#000000" font-family="sans-serif" font-size="13" lengthAdjust="spacingAndGlyphs" textLength="58" x="1627.5" y="200.4951">RelatedTo</text><path d="M1539.24,376.825 C1479.82,385.827 1395.3,399.0208 1321.5,412 C1235.37,427.1473 1137.12,446.425 1069.78,459.9443 " fill="none" style="stroke: #A80036; stroke-width: 1.0;"/><text fill="#000000" font-family="sans-serif" font-size="13" lengthAdjust="spacingAndGlyphs" textLength="58" x="1322.5" y="426.4951">RelatedTo</text><path d="M988.098,459.8373 C986.695,419.8152 980.419,315.541 952.5,234 C944.571,210.843 942.035,204.047 925.5,186 C914.776,174.295 900.567,163.998 887.912,156.089 " fill="none" style="stroke: #A80036; stroke-width: 1.0;"/><text fill="#000000" font-family="sans-serif" font-size="13" lengthAdjust="spacingAndGlyphs" textLength="58" x="974.5" y="313.4951">RelatedTo</text><path d="M857.5,156.359 C857.5,177.343 857.5,212.958 857.5,233.847 " fill="none" style="stroke: #A80036; stroke-width: 1.0;"/><text fill="#000000" font-family="sans-serif" font-size="13" lengthAdjust="spacingAndGlyphs" textLength="58" x="858.5" y="200.4951">RelatedTo</text><path d="M780.904,144.618 C688.305,151.387 527.903,164.974 391.5,186 C308.484,198.797 214.087,219.488 151.925,233.975 " fill="none" style="stroke: #A80036; stroke-width: 1.0;"/><text fill="#000000" font-family="sans-serif" font-size="13" lengthAdjust="spacingAndGlyphs" textLength="58" x="392.5" y="200.4951">RelatedTo</text><path d="M780.683,149.208 C717.148,157.645 624.665,170.869 544.5,186 C470.108,200.042 385.532,220.006 328.774,233.993 " fill="none" style="stroke: #A80036; stroke-width: 1.0;"/><text fill="#000000" font-family="sans-serif" font-size="13" lengthAdjust="spacingAndGlyphs" textLength="58" x="545.5" y="200.4951">RelatedTo</text><path d="M791.264,156.01 C756.708,164.728 713.768,175.724 675.5,186 C616.861,201.747 550.058,220.677 503.801,233.942 " fill="none" style="stroke: #A80036; stroke-width: 1.0;"/><text fill="#000000" font-family="sans-serif" font-size="13" lengthAdjust="spacingAndGlyphs" textLength="58" x="676.5" y="200.4951">RelatedTo</text><path d="M826.959,156.118 C788.39,177.104 722.426,212.996 683.916,233.95 " fill="none" style="stroke: #A80036; stroke-width: 1.0;"/><text fill="#000000" font-family="sans-serif" font-size="13" lengthAdjust="spacingAndGlyphs" textLength="58" x="769.5" y="200.4951">RelatedTo</text><path d="M934.024,152.445 C988.541,161.701 1063.54,174.503 1129.5,186 C1221.72,202.076 1327.05,220.835 1400.4,233.964 " fill="none" style="stroke: #A80036; stroke-width: 1.0;"/><text fill="#000000" font-family="sans-serif" font-size="13" lengthAdjust="spacingAndGlyphs" textLength="58" x="1230.5" y="200.4951">RelatedTo</text><path d="M1510.91,269.118 C1534.1,290.044 1573.71,325.789 1596.96,346.769 " fill="none" style="stroke: #A80036; stroke-width: 1.0;"/><text fill="#000000" font-family="sans-serif" font-size="13" lengthAdjust="spacingAndGlyphs" textLength="58" x="1561.5" y="313.4951">RelatedTo</text><path d="M1555.5,382.042 C1523.92,390.815 1484.57,401.8515 1449.5,412 C1394.42,427.9357 1331.65,446.7555 1288.02,459.9396 " fill="none" style="stroke: #A80036; stroke-width: 1.0;"/><text fill="#000000" font-family="sans-serif" font-size="13" lengthAdjust="spacingAndGlyphs" textLength="58" x="1450.5" y="426.4951">RelatedTo</text><path d="M1589.3,382.118 C1556.21,403.1041 1499.63,438.9961 1466.59,459.9501 " fill="none" style="stroke: #A80036; stroke-width: 1.0;"/><text fill="#000000" font-family="sans-serif" font-size="13" lengthAdjust="spacingAndGlyphs" textLength="58" x="1538.5" y="426.4951">RelatedTo</text><path d="M1621.88,382.359 C1629.82,403.3428 1643.29,438.9581 1651.2,459.8465 " fill="none" style="stroke: #A80036; stroke-width: 1.0;"/><text fill="#000000" font-family="sans-serif" font-size="13" lengthAdjust="spacingAndGlyphs" textLength="58" x="1639.5" y="426.4951">RelatedTo</text><path d="M1653.98,382.118 C1702.57,403.1041 1785.67,438.9961 1834.18,459.9501 " fill="none" style="stroke: #A80036; stroke-width: 1.0;"/><text fill="#000000" font-family="sans-serif" font-size="13" lengthAdjust="spacingAndGlyphs" textLength="58" x="1759.5" y="426.4951">RelatedTo</text><path d="M1691.82,381.654 C1731.98,390.32 1781.99,401.379 1826.5,412 C1891.27,427.4542 1965.04,446.5972 2015.76,459.9986 " fill="none" style="stroke: #A80036; stroke-width: 1.0;"/><text fill="#000000" font-family="sans-serif" font-size="13" lengthAdjust="spacingAndGlyphs" textLength="58" x="1896.5" y="426.4951">RelatedTo</text><path d="M917.481,156.096 C946.886,164.529 982.725,175.249 1014.5,186 C1058.82,200.998 1108.8,220.387 1142.84,233.975 " fill="none" style="stroke: #A80036; stroke-width: 1.0;"/><text fill="#000000" font-family="sans-serif" font-size="13" lengthAdjust="spacingAndGlyphs" textLength="58" x="1062.5" y="200.4951">RelatedTo</text></g></svg>