<?xml version="1.0" encoding="UTF-8" standalone="no"?><svg xmlns="http://www.w3.org/2000/svg" xmlns:xlink="http://www.w3.org/1999/xlink" contentScriptType="application/ecmascript" contentStyleType="text/css" height="504px" preserveAspectRatio="none" style="width:1571px;height:504px;" version="1.1" viewBox="0 0 1571 504" width="1571px" zoomAndPan="magnify"><defs><filter height="300%" id="fo8uhw3" width="300%" x="-1" y="-1"><feGaussianBlur result="blurOut" stdDeviation="2.0"/><feColorMatrix in="blurOut" result="blurOut2" type="matrix" values="0 0 0 0 0 0 0 0 0 0 0 0 0 0 0 0 0 0 .4 0"/><feOffset dx="4.0" dy="4.0" in="blurOut2" result="blurOut3"/><feBlend in="SourceGraphic" in2="blurOut3" mode="normal"/></filter></defs><g><rect fill="#FFC0CB" filter="url(#fo8uhw3)" height="35.0938" style="stroke: #A80036; stroke-width: 1.5;" width="264" x="1099.5" y="8"/><text fill="#000000" font-family="sans-serif" font-size="12" lengthAdjust="spacingAndGlyphs" textLength="250" x="1106.5" y="22.457">_SoI2gD04Eeeoi7m4eFdz4w : SpecHierarchy</text><line style="stroke: #A80036; stroke-width: 1.5;" x1="1100.5" x2="1362.5" y1="27.0938" y2="27.0938"/><rect fill="#FEFECE" filter="url(#fo8uhw3)" height="35.0938" style="stroke: #A80036; stroke-width: 1.5;" width="153" x="685" y="347"/><text fill="#000000" font-family="sans-serif" font-size="12" lengthAdjust="spacingAndGlyphs" textLength="139" x="692" y="361.457">CreateUserAction : Class</text><line style="stroke: #A80036; stroke-width: 1.5;" x1="686" x2="837" y1="366.0938" y2="366.0938"/><rect fill="#FEFECE" filter="url(#fo8uhw3)" height="35.0938" style="stroke: #A80036; stroke-width: 1.5;" width="152" x="853.5" y="121"/><text fill="#000000" font-family="sans-serif" font-size="12" lengthAdjust="spacingAndGlyphs" textLength="138" x="860.5" y="135.457">DeleteUserAction : Class</text><line style="stroke: #A80036; stroke-width: 1.5;" x1="854.5" x2="1004.5" y1="140.0938" y2="140.0938"/><rect fill="#FEFECE" filter="url(#fo8uhw3)" height="35.0938" style="stroke: #A80036; stroke-width: 1.5;" width="261" x="6" y="234"/><text fill="#000000" font-family="sans-serif" font-size="12" lengthAdjust="spacingAndGlyphs" textLength="247" x="13" y="248.457">_-1Zr0D03Eeeoi7m4eFdz4w : SpecHierarchy</text><line style="stroke: #A80036; stroke-width: 1.5;" x1="7" x2="266" y1="253.0938" y2="253.0938"/><rect fill="#FEFECE" filter="url(#fo8uhw3)" height="35.0938" style="stroke: #A80036; stroke-width: 1.5;" width="155" x="429" y="460"/><text fill="#000000" font-family="sans-serif" font-size="12" lengthAdjust="spacingAndGlyphs" textLength="141" x="436" y="474.457">Add Customer : UseCase</text><line style="stroke: #A80036; stroke-width: 1.5;" x1="430" x2="583" y1="479.0938" y2="479.0938"/><rect fill="#FEFECE" filter="url(#fo8uhw3)" height="35.0938" style="stroke: #A80036; stroke-width: 1.5;" width="155" x="939" y="460"/><text fill="#000000" font-family="sans-serif" font-size="12" lengthAdjust="spacingAndGlyphs" textLength="141" x="946" y="474.457">Add Employee : UseCase</text><line style="stroke: #A80036; stroke-width: 1.5;" x1="940" x2="1093" y1="479.0938" y2="479.0938"/><rect fill="#FEFECE" filter="url(#fo8uhw3)" height="35.0938" style="stroke: #A80036; stroke-width: 1.5;" width="135" x="1129" y="460"/><text fill="#000000" font-family="sans-serif" font-size="12" lengthAdjust="spacingAndGlyphs" textLength="121" x="1136" y="474.457">Add Admin : UseCase</text><line style="stroke: #A80036; stroke-width: 1.5;" x1="1130" x2="1263" y1="479.0938" y2="479.0938"/><rect fill="#FEFECE" filter="url(#fo8uhw3)" height="35.0938" style="stroke: #A80036; stroke-width: 1.5;" width="160" x="15.5" y="460"/><text fill="#000000" font-family="sans-serif" font-size="12" lengthAdjust="spacingAndGlyphs" textLength="146" x="22.5" y="474.457">CreateUserAction : Lifeline</text><line style="stroke: #A80036; stroke-width: 1.5;" x1="16.5" x2="174.5" y1="479.0938" y2="479.0938"/><rect fill="#FEFECE" filter="url(#fo8uhw3)" height="35.0938" style="stroke: #A80036; stroke-width: 1.5;" width="183" x="211" y="460"/><text fill="#000000" font-family="sans-serif" font-size="12" lengthAdjust="spacingAndGlyphs" textLength="169" x="218" y="474.457">Data validation : DecisionNode</text><line style="stroke: #A80036; stroke-width: 1.5;" x1="212" x2="393" y1="479.0938" y2="479.0938"/><rect fill="#FEFECE" filter="url(#fo8uhw3)" height="35.0938" style="stroke: #A80036; stroke-width: 1.5;" width="263" x="1299" y="460"/><text fill="#000000" font-family="sans-serif" font-size="12" lengthAdjust="spacingAndGlyphs" textLength="249" x="1306" y="474.457">_zf1hwD03Eeeoi7m4eFdz4w : SpecHierarchy</text><line style="stroke: #A80036; stroke-width: 1.5;" x1="1300" x2="1561" y1="479.0938" y2="479.0938"/><rect fill="#FEFECE" filter="url(#fo8uhw3)" height="35.0938" style="stroke: #A80036; stroke-width: 1.5;" width="284" x="619.5" y="460"/><text fill="#000000" font-family="sans-serif" font-size="12" lengthAdjust="spacingAndGlyphs" textLength="270" x="626.5" y="474.457">_2wXEMD4wEeeZbuCWOdhxUQ : SpecHierarchy</text><line style="stroke: #A80036; stroke-width: 1.5;" x1="620.5" x2="902.5" y1="479.0938" y2="479.0938"/><rect fill="#FEFECE" filter="url(#fo8uhw3)" height="35.0938" style="stroke: #A80036; stroke-width: 1.5;" width="159" x="1147" y="234"/><text fill="#000000" font-family="sans-serif" font-size="12" lengthAdjust="spacingAndGlyphs" textLength="145" x="1154" y="248.457">DeleteUserAction : Lifeline</text><line style="stroke: #A80036; stroke-width: 1.5;" x1="1148" x2="1305" y1="253.0938" y2="253.0938"/><rect fill="#FEFECE" filter="url(#fo8uhw3)" height="35.0938" style="stroke: #A80036; stroke-width: 1.5;" width="184" x="302.5" y="234"/><text fill="#000000" font-family="sans-serif" font-size="12" lengthAdjust="spacingAndGlyphs" textLength="170" x="309.5" y="248.457">User is deleted : OpaqueAction</text><line style="stroke: #A80036; stroke-width: 1.5;" x1="303.5" x2="485.5" y1="253.0938" y2="253.0938"/><rect fill="#FEFECE" filter="url(#fo8uhw3)" height="35.0938" style="stroke: #A80036; stroke-width: 1.5;" width="180" x="521.5" y="234"/><text fill="#000000" font-family="sans-serif" font-size="12" lengthAdjust="spacingAndGlyphs" textLength="166" x="528.5" y="248.457">Remove Customer : UseCase</text><line style="stroke: #A80036; stroke-width: 1.5;" x1="522.5" x2="700.5" y1="253.0938" y2="253.0938"/><rect fill="#FEFECE" filter="url(#fo8uhw3)" height="35.0938" style="stroke: #A80036; stroke-width: 1.5;" width="180" x="736.5" y="234"/><text fill="#000000" font-family="sans-serif" font-size="12" lengthAdjust="spacingAndGlyphs" textLength="166" x="743.5" y="248.457">Remove Employee : UseCase</text><line style="stroke: #A80036; stroke-width: 1.5;" x1="737.5" x2="915.5" y1="253.0938" y2="253.0938"/><rect fill="#FEFECE" filter="url(#fo8uhw3)" height="35.0938" style="stroke: #A80036; stroke-width: 1.5;" width="160" x="951.5" y="234"/><text fill="#000000" font-family="sans-serif" font-size="12" lengthAdjust="spacingAndGlyphs" textLength="146" x="958.5" y="248.457">Remove Admin : UseCase</text><line style="stroke: #A80036; stroke-width: 1.5;" x1="952.5" x2="1110.5" y1="253.0938" y2="253.0938"/><path d="M1248.1,43.147 C1288.26,85.416 1383.12,198.524 1323.5,269 C1262.2,341.47 977.076,358.393 838.082,362.324 " fill="none" style="stroke: #A80036; stroke-width: 1.0;"/><text fill="#000000" font-family="sans-serif" font-size="13" lengthAdjust="spacingAndGlyphs" textLength="58" x="1342.5" y="200.4951">RelatedTo</text><path d="M1186.29,43.118 C1129.19,64.104 1031.54,99.996 974.528,120.95 " fill="none" style="stroke: #A80036; stroke-width: 1.0;"/><text fill="#000000" font-family="sans-serif" font-size="13" lengthAdjust="spacingAndGlyphs" textLength="58" x="1100.5" y="87.4951">RelatedTo</text><path d="M853.303,147.554 C774.038,156.158 646.391,170.646 536.5,186 C432.003,200.601 312.634,220.235 231.698,233.992 " fill="none" style="stroke: #A80036; stroke-width: 1.0;"/><text fill="#000000" font-family="sans-serif" font-size="13" lengthAdjust="spacingAndGlyphs" textLength="58" x="537.5" y="200.4951">RelatedTo</text><path d="M229.731,269.058 C353.598,291.057 570.115,329.51 684.939,349.903 " fill="none" style="stroke: #A80036; stroke-width: 1.0;"/><text fill="#000000" font-family="sans-serif" font-size="13" lengthAdjust="spacingAndGlyphs" textLength="58" x="487.5" y="313.4951">RelatedTo</text><path d="M723.324,382.118 C675.112,403.1041 592.658,438.9961 544.52,459.9501 " fill="none" style="stroke: #A80036; stroke-width: 1.0;"/><text fill="#000000" font-family="sans-serif" font-size="13" lengthAdjust="spacingAndGlyphs" textLength="58" x="650.5" y="426.4951">RelatedTo</text><path d="M799.676,382.118 C847.888,403.1041 930.342,438.9961 978.48,459.9501 " fill="none" style="stroke: #A80036; stroke-width: 1.0;"/><text fill="#000000" font-family="sans-serif" font-size="13" lengthAdjust="spacingAndGlyphs" textLength="58" x="905.5" y="426.4951">RelatedTo</text><path d="M838.448,381.232 C878.554,389.741 928.326,400.7846 972.5,412 C1030.94,426.8385 1097.24,446.2541 1142.45,459.8921 " fill="none" style="stroke: #A80036; stroke-width: 1.0;"/><text fill="#000000" font-family="sans-serif" font-size="13" lengthAdjust="spacingAndGlyphs" textLength="58" x="1035.5" y="426.4951">RelatedTo</text><path d="M684.668,374.366 C614.409,382.82 507.701,396.5292 415.5,412 C331.104,426.1611 234.936,446.0571 170.246,459.9957 " fill="none" style="stroke: #A80036; stroke-width: 1.0;"/><text fill="#000000" font-family="sans-serif" font-size="13" lengthAdjust="spacingAndGlyphs" textLength="58" x="416.5" y="426.4951">RelatedTo</text><path d="M684.548,381.853 C644.751,390.484 595.434,401.4492 551.5,412 C487.236,427.433 414.055,446.5794 363.745,459.9873 " fill="none" style="stroke: #A80036; stroke-width: 1.0;"/><text fill="#000000" font-family="sans-serif" font-size="13" lengthAdjust="spacingAndGlyphs" textLength="58" x="552.5" y="426.4951">RelatedTo</text><path d="M838.213,374.656 C907.452,383.229 1012.03,396.9493 1102.5,412 C1188.66,426.3332 1286.88,446.1059 1353.19,459.9686 " fill="none" style="stroke: #A80036; stroke-width: 1.0;"/><text fill="#000000" font-family="sans-serif" font-size="13" lengthAdjust="spacingAndGlyphs" textLength="58" x="1202.5" y="426.4951">RelatedTo</text><path d="M761.5,382.359 C761.5,403.3428 761.5,438.9581 761.5,459.8465 " fill="none" style="stroke: #A80036; stroke-width: 1.0;"/><text fill="#000000" font-family="sans-serif" font-size="13" lengthAdjust="spacingAndGlyphs" textLength="58" x="762.5" y="426.4951">RelatedTo</text><path d="M1005.658,149.076 C1106.53,163.186 1277.13,192.459 1323.5,234 C1394.27,297.409 1420.49,416.3088 1427.98,459.9188 " fill="none" style="stroke: #A80036; stroke-width: 1.0;"/><text fill="#000000" font-family="sans-serif" font-size="13" lengthAdjust="spacingAndGlyphs" textLength="58" x="1383.5" y="313.4951">RelatedTo</text><path d="M974.725,156.101 C998.738,164.938 1028.74,176.015 1055.5,186 C1098.9,202.194 1148.42,220.896 1182.96,233.978 " fill="none" style="stroke: #A80036; stroke-width: 1.0;"/><text fill="#000000" font-family="sans-serif" font-size="13" lengthAdjust="spacingAndGlyphs" textLength="58" x="1104.5" y="200.4951">RelatedTo</text><path d="M853.462,153.208 C804.788,162.148 740.331,174.29 683.5,186 C608.982,201.354 524.033,220.513 465.62,233.945 " fill="none" style="stroke: #A80036; stroke-width: 1.0;"/><text fill="#000000" font-family="sans-serif" font-size="13" lengthAdjust="spacingAndGlyphs" textLength="58" x="684.5" y="200.4951">RelatedTo</text><path d="M881.892,156.118 C821.769,177.104 718.944,212.996 658.913,233.95 " fill="none" style="stroke: #A80036; stroke-width: 1.0;"/><text fill="#000000" font-family="sans-serif" font-size="13" lengthAdjust="spacingAndGlyphs" textLength="58" x="791.5" y="200.4951">RelatedTo</text><path d="M913.857,156.359 C894.385,177.343 861.336,212.958 841.953,233.847 " fill="none" style="stroke: #A80036; stroke-width: 1.0;"/><text fill="#000000" font-family="sans-serif" font-size="13" lengthAdjust="spacingAndGlyphs" textLength="58" x="885.5" y="200.4951">RelatedTo</text><path d="M944.992,156.359 C964.274,177.343 997.002,212.958 1016.2,233.847 " fill="none" style="stroke: #A80036; stroke-width: 1.0;"/><text fill="#000000" font-family="sans-serif" font-size="13" lengthAdjust="spacingAndGlyphs" textLength="58" x="988.5" y="200.4951">RelatedTo</text></g></svg>